<svg width="256" height="256" viewBox="0 0 256 256" fill="none" xmlns="http://www.w3.org/2000/svg">
<rect width="256" height="256" rx="128" fill="#5AC43B"/>
<path d="M56 92.9936H97.2739C101.86 92.9936 105.529 96.6624 105.529 101.248C105.529 105.834 101.86 109.503 97.2739 109.503H56C57.5287 130.293 74.9554 146.497 96.0509 146.497H97.5796C102.166 146.497 105.834 150.166 105.834 154.752C105.834 159.338 102.166 163.006 97.5796 163.006H96.0509C74.9554 163.006 57.5287 179.21 56 200H165.758C186.853 200 204.28 183.796 205.809 163.006H164.535C159.949 163.006 156.28 159.338 156.28 154.752C156.28 150.166 159.949 146.497 164.535 146.497H205.809C204.28 125.707 186.853 109.503 165.758 109.503H164.229C159.643 109.503 155.975 105.834 155.975 101.248C155.975 96.6624 159.643 92.9936 164.229 92.9936H165.758C186.853 92.9936 204.28 76.7898 205.809 56H96.0509C74.9554 56 57.5287 72.2038 56 92.9936Z" fill="#150F0F"/>
</svg>
